<svg width="128" height="128" viewBox="0 0 128 128" fill="none" xmlns="http://www.w3.org/2000/svg">
<g clip-path="url(#clip0_50_2)">
<rect width="128" height="128" fill="white"/>
<path d="M30.192 90.96C24.624 90.96 20.24 89.552 17.04 86.736C13.84 83.856 12.24 79.984 12.24 75.12C12.24 70.192 13.84 66.32 17.04 63.504C20.24 60.688 24.56 59.28 30 59.28H46.32V54C46.32 50.736 45.328 48.24 43.344 46.512C41.424 44.72 38.672 43.824 35.088 43.824C31.952 43.824 29.328 44.496 27.216 45.84C25.104 47.12 23.888 48.88 23.568 51.12H14.928C15.504 46.576 17.648 42.96 21.36 40.272C25.072 37.584 29.712 36.24 35.28 36.24C41.36 36.24 46.16 37.808 49.68 40.944C53.2 44.08 54.96 48.336 54.96 53.712V90H46.512V79.92H45.072L46.512 78.48C46.512 82.32 45.008 85.36 42 87.6C39.056 89.84 35.12 90.96 30.192 90.96ZM32.304 84.144C36.4 84.144 39.76 83.12 42.384 81.072C45.008 79.024 46.32 76.4 46.32 73.2V65.712H30.192C27.312 65.712 25.04 66.512 23.376 68.112C21.712 69.712 20.88 71.888 20.88 74.64C20.88 77.584 21.872 79.92 23.856 81.648C25.904 83.312 28.72 84.144 32.304 84.144ZM90.7305 90.768C87.1465 90.768 84.0105 90.224 81.3225 89.136C78.6985 87.984 76.5865 86.384 74.9865 84.336C73.4505 82.288 72.5225 79.856 72.2025 77.04H80.8425C81.2265 78.896 82.2505 80.368 83.9145 81.456C85.6425 82.544 87.9145 83.088 90.7305 83.088H94.7625C98.1545 83.088 100.683 82.416 102.347 81.072C104.011 79.664 104.843 77.808 104.843 75.504C104.843 73.264 104.075 71.504 102.539 70.224C101.067 68.88 98.8585 67.984 95.9145 67.536L88.8105 66.384C83.6265 65.488 79.7545 63.888 77.1945 61.584C74.6985 59.216 73.4505 55.792 73.4505 51.312C73.4505 46.576 74.9545 42.928 77.9625 40.368C80.9705 37.744 85.4825 36.432 91.4985 36.432H95.1465C100.203 36.432 104.267 37.616 107.339 39.984C110.411 42.352 112.267 45.552 112.906 49.584H104.267C103.883 47.92 102.923 46.608 101.387 45.648C99.8505 44.624 97.7705 44.112 95.1465 44.112H91.4985C88.2345 44.112 85.8345 44.72 84.2985 45.936C82.8265 47.152 82.0905 48.976 82.0905 51.408C82.0905 53.584 82.7305 55.184 84.0105 56.208C85.2905 57.232 87.3065 57.968 90.0585 58.416L97.1625 59.568C102.859 60.464 106.987 62.128 109.547 64.56C112.171 66.992 113.483 70.512 113.483 75.12C113.483 79.984 111.915 83.824 108.779 86.64C105.707 89.392 101.035 90.768 94.7625 90.768H90.7305Z" fill="black"/>
</g>
<defs>
<clipPath id="clip0_50_2">
<rect width="128" height="128" fill="white"/>
</clipPath>
</defs>
</svg>
